<svg xmlns="http://www.w3.org/2000/svg" width="14" height="14" viewBox="0 0 14 14"><path fill="#D8D8D8" d="M417,304 C418.104569,304 419,304.895431 419,306 L419,316 C419,317.104569 418.104569,318 417,318 L407,318 C405.895431,318 405,317.104569 405,316 L405,306 C405,304.895431 405.895431,304 407,304 L417,304 Z M417,305 L407,305 C406.447715,305 406,305.447715 406,306 L406,316 C406,316.552285 406.447715,317 407,317 L417,317 C417.552285,317 418,316.552285 418,316 L418,306 C418,305.447715 417.552285,305 417,305 Z" transform="translate(-405 -304)"></path></svg>