<svg width="94" height="44" viewBox="0 0 94 44" fill="none" xmlns="http://www.w3.org/2000/svg">
<path d="M0 22C0 9.84974 9.84974 0 22 0H72C84.1503 0 94 9.84974 94 22C94 34.1503 84.1503 44 72 44H22C9.84973 44 0 34.1503 0 22Z" fill="white"/>
<path d="M17.2656 13.7783H35.6025C34.5713 20.2881 34.002 23.876 33.8945 24.542C33.8802 24.6208 33.6439 26.1283 33.1855 29.0645C32.9993 29.2148 32.4837 29.6589 31.6387 30.3965H17.9424C17.9281 30.3893 17.5557 29.9453 16.8252 29.0645H16.8145C17.9531 21.9102 18.5404 18.2005 18.5762 17.9355C18.5762 17.9212 18.7552 16.7933 19.1133 14.5518C18.4902 14.1221 17.8743 13.8678 17.2656 13.7891V13.7783ZM21.3369 20.8037H31.252C31.2663 20.8037 31.2878 20.682 31.3164 20.4385L32.0146 16.0986H22.0996C22.0781 16.0986 22.0531 16.2383 22.0244 16.5176C22.0101 16.6107 21.7809 18.0394 21.3369 20.8037ZM20.9824 23.124L20.1875 28.1299H30.1133L30.8975 23.124H20.9824ZM36.6875 13.2627H41.6934L41.833 16.5176L41.8438 16.5605H41.8223H38.46L38.3418 13.7354C37.9479 13.5778 37.4717 13.431 36.9131 13.2949C36.7842 13.2806 36.709 13.2734 36.6875 13.2734V13.2627ZM46.3662 13.3271H51.5439V13.3379L50.7061 18.7197H55.5938L55.2285 21.04H50.3301V21.0508C50.3301 21.0579 49.8467 24.1087 48.8799 30.2031C48.8656 30.2962 48.8512 30.3428 48.8369 30.3428H45.6465C46.5345 24.7067 47.0251 21.6058 47.1182 21.04H42.2949C42.4382 20.1234 42.5599 19.3499 42.6602 18.7197H47.4834C47.9847 15.5544 48.2389 13.918 48.2461 13.8105C47.9596 13.6888 47.6016 13.5814 47.1719 13.4883C46.7135 13.388 46.445 13.3379 46.3662 13.3379V13.3271ZM41.8223 17.2588C41.7793 17.5667 41.3138 20.5101 40.4258 26.0889L42.6172 24.6064L42.1016 27.8398C42.0658 27.8542 40.5905 28.6885 37.6758 30.3428C37.0885 30.0277 36.7627 29.8558 36.6982 29.8271L38.2129 20.2451C38.2773 19.8298 38.3096 19.6113 38.3096 19.5898H36.7842V19.5791C36.9919 18.1611 37.1136 17.3877 37.1494 17.2588H41.8223ZM72.083 13.3271H77.1855V13.3379L75.6172 23.3281C75.0299 27.0449 74.7256 28.9427 74.7041 29.0215C74.654 29.0573 74.1419 29.4977 73.168 30.3428H69.3438C69.3438 30.3213 69.4655 29.5407 69.709 28.001H72.0723C73.1322 21.305 73.6872 17.8031 73.7373 17.4951C73.7373 17.4736 73.9163 16.3457 74.2744 14.1113C74.0023 13.9395 73.637 13.7747 73.1787 13.6172C72.8923 13.5312 72.527 13.4382 72.083 13.3379V13.3271ZM60.2021 13.4238H63.5537C63.7327 15.9089 63.8223 17.1872 63.8223 17.2588L63.8438 17.2695C65.806 16.89 67.5319 16.5677 69.0215 16.3027L68.5918 18.999C66.2715 19.4788 64.7425 19.7939 64.0049 19.9443L64.1982 22.5977C66.7477 21.2656 68.0833 20.571 68.2051 20.5137V20.5244C68.1693 20.7751 67.9974 21.8636 67.6895 23.79L64.3916 25.4873C64.5062 27.027 64.5635 27.8434 64.5635 27.9365H67.4961V27.9473L67.1201 30.3428H61.5449C61.5449 30.2568 61.4912 29.1611 61.3838 27.0557C58.3903 28.6169 56.8184 29.4297 56.668 29.4941V29.4834C56.9974 27.4066 57.1693 26.3288 57.1836 26.25C59.7689 24.9036 61.1188 24.2018 61.2334 24.1445C61.1188 21.8099 61.0579 20.6104 61.0508 20.5459C60.1986 20.7178 59.0635 20.9541 57.6455 21.2549V21.2441C57.9248 19.418 58.0752 18.4691 58.0967 18.3975L60.9004 17.8389C60.7786 15.4398 60.7142 14.1973 60.707 14.1113C59.9193 13.7103 59.264 13.4883 58.7412 13.4453V13.4346H58.752C59.375 13.4274 59.8584 13.4238 60.2021 13.4238ZM64.3486 13.499H67.292L67.4531 16.1523H64.585C64.5706 16.1523 64.5635 16.1488 64.5635 16.1416C64.5635 16.0986 64.4919 15.2178 64.3486 13.499ZM70.2031 14.7344H72.9209C71.861 21.4733 71.3024 25.029 71.2451 25.4014C71.1234 26.1748 71.0553 26.6081 71.041 26.7012H68.3018C68.3304 26.5293 68.8604 23.1706 69.8916 16.625C69.9131 16.5247 70.0169 15.8945 70.2031 14.7344Z" fill="#3AC794"/>
<path d="M22 1H72V-1H22V1ZM72 43H22V45H72V43ZM22 43C10.402 43 1 33.598 1 22H-1C-1 34.7025 9.29745 45 22 45V43ZM93 22C93 33.598 83.598 43 72 43V45C84.7025 45 95 34.7025 95 22H93ZM72 1C83.598 1 93 10.402 93 22H95C95 9.29745 84.7026 -1 72 -1V1ZM22 -1C9.29745 -1 -1 9.29745 -1 22H1C1 10.402 10.402 1 22 1V-1Z" fill="#89FFD5"/>
</svg>
