<svg width="36" height="36" viewBox="0 0 36 36" fill="none" xmlns="http://www.w3.org/2000/svg">
<circle opacity="0.2" cx="18" cy="18" r="18" fill="url(#paint0_linear_346_5685)"/>
<circle cx="17.9986" cy="17.9986" r="11.6471" fill="url(#paint1_linear_346_5685)"/>
<path d="M18.0092 23.2914C17.6216 23.2914 17.3019 23.1738 17.0499 22.9388C16.7979 22.7037 16.6719 22.4194 16.6719 22.0848C16.6719 21.7359 16.7989 21.4501 17.0536 21.2272C17.3077 21.0043 17.6264 20.8931 18.0092 20.8931C18.3967 20.8931 18.7143 21.0059 18.9611 21.2309C19.2083 21.4564 19.3316 21.7407 19.3316 22.0848C19.3316 22.4337 19.2093 22.7217 18.9648 22.9494C18.7202 23.177 18.4015 23.2914 18.0092 23.2914ZM19.1855 13.0848L18.9309 19.5304C18.9229 19.7274 18.7609 19.883 18.564 19.883H17.4104C17.2129 19.883 17.0509 19.7268 17.0435 19.5294L16.8026 13.0843C16.7947 12.8762 16.9615 12.7031 17.1695 12.7031H18.8192C19.0272 12.7031 19.194 12.8762 19.1855 13.0848Z" fill="white"/>
<defs>
<linearGradient id="paint0_linear_346_5685" x1="3.14845e-07" y1="18.4" x2="36" y2="18.4" gradientUnits="userSpaceOnUse">
<stop stop-color="#FF7E48"/>
<stop offset="1" stop-color="#FF4D99"/>
</linearGradient>
<linearGradient id="paint1_linear_346_5685" x1="6.35156" y1="18.2574" x2="29.6457" y2="18.2574" gradientUnits="userSpaceOnUse">
<stop stop-color="#FF7E48"/>
<stop offset="1" stop-color="#FF4D99"/>
</linearGradient>
</defs>
</svg>
