<svg width="139" height="44" viewBox="0 0 139 44" fill="none" xmlns="http://www.w3.org/2000/svg">
<path d="M0 22C0 9.84974 9.84974 0 22 0H117C129.15 0 139 9.84974 139 22C139 34.1503 129.15 44 117 44H22C9.84974 44 0 34.1503 0 22Z" fill="white"/>
<path d="M26.2559 10.0391C26.2559 10.0573 26.1146 10.349 25.832 10.9141C25.7865 10.9961 25.7637 11.0417 25.7637 11.0508H41.8555C41.8464 11.1602 41.6914 12.1445 41.3906 14.0039H33.6797L33.1328 17.4492H40.4062L39.9414 20.4023H32.6543L32.0254 24.4629H39.7363C39.7272 24.5358 39.5768 25.4837 39.2852 27.3066L39.2578 27.3203H31.5879C31.5605 27.3203 31.515 27.5527 31.4512 28.0176C31.4421 28.0723 31.2507 29.2982 30.877 31.6953L30.8496 31.709H26.8027L26.7754 31.6953L27.4727 27.3203H16.7266V27.3066L17.1641 24.4629H19.4883L20.582 17.4492H29.0449C29.3822 15.2708 29.5599 14.1224 29.5781 14.0039H24.3691L23.0977 16.6973H18.6953L21.7031 10.9688C20.7917 10.4583 20.0443 10.1576 19.4609 10.0664V10.0527H21.0605C22.4004 10.0527 24.1322 10.0482 26.2559 10.0391ZM23.5898 24.4629H27.9238C28.0423 23.679 28.2565 22.3255 28.5664 20.4023H24.2461C24.2188 20.4023 24.1777 20.6576 24.123 21.168C24.0957 21.25 23.918 22.3483 23.5898 24.4629ZM54.625 10.0527H61.0645C61.1009 10.0801 61.2741 10.472 61.584 11.2285H69.3496L68.8848 14.168H50.5371C50.5189 14.168 50.4596 14.4414 50.3594 14.9883C49.1198 20.9401 48.3633 24.5768 48.0898 25.8984C48.0807 25.9349 47.6797 27.8717 46.8867 31.709H43.2227V31.6953L44.6309 24.6406C45.7155 19.2357 46.5221 15.1706 47.0508 12.4453C47.0964 12.3177 47.1191 12.1992 47.1191 12.0898C46.8548 11.9167 46.4583 11.7298 45.9297 11.5293C45.319 11.3379 44.9408 11.2422 44.7949 11.2422V11.2285H57.5234C57.3958 10.9095 57.3229 10.7409 57.3047 10.7227C56.1654 10.3581 55.5091 10.1758 55.3359 10.1758C54.9805 10.1029 54.7435 10.0664 54.625 10.0664V10.0527ZM52.8203 14.7559H56.3887C56.3249 15.2298 56.2793 15.5306 56.252 15.6582H62.5547C62.6276 15.0566 62.6777 14.7559 62.7051 14.7559H66.2324L66.2598 14.7695C66.2324 14.888 66.1868 15.1842 66.123 15.6582H68.502L68.0918 18.2422H65.7129C65.7038 18.2422 65.6719 18.4473 65.6172 18.8574L65.4258 19.9785C65.3711 20.0241 64.7194 20.5846 63.4707 21.6602C63.4616 21.6693 63.4479 21.6738 63.4297 21.6738H53.4629C53.4264 21.6738 53.3717 21.6237 53.2988 21.5234C52.5697 20.6667 52.1322 20.1471 51.9863 19.9648L52.2598 18.2422H50.2363L50.6328 15.6582H52.6836L52.8203 14.7559ZM55.8418 18.2422L55.6914 19.2266H61.9805V19.2129L62.1172 18.2422H55.8418ZM66.1504 22.0703H66.1777L65.3848 27.1016L60.9277 28.9609V28.9746C61.0007 29.0111 63.0241 29.918 66.998 31.6953V31.709H59.6289C59.5742 31.6908 58.8633 31.3809 57.4961 30.7793C57.3138 30.6882 57.209 30.6426 57.1816 30.6426C55.5775 31.3535 54.7663 31.709 54.748 31.709H47.584V31.6953C50.1816 30.5833 52.2871 29.681 53.9004 28.9883V28.9746C53.8822 28.9746 52.5697 28.4505 49.9629 27.4023V27.3887L50.2773 25.3652H54.5293L54.543 25.3789C54.5247 25.5065 54.5065 25.6615 54.4883 25.8438L57.9062 27.2383C60.7956 26.026 62.2858 25.3971 62.377 25.3516C62.377 25.3242 62.4043 25.1465 62.459 24.8184H50.25C50.5234 23.0501 50.6693 22.1341 50.6875 22.0703H66.1504ZM70.7305 9.9707H77.1016L77.2793 14.1133L77.293 14.168H77.2656H72.9863L72.8359 10.5723C72.3346 10.3717 71.7285 10.1849 71.0176 10.0117C70.8535 9.99349 70.7578 9.98438 70.7305 9.98438V9.9707ZM83.0488 10.0527H89.6387V10.0664L88.5723 16.916H94.793L94.3281 19.8691H88.0938V19.8828C88.0938 19.8919 87.4785 23.7747 86.248 31.5312C86.2298 31.6497 86.2116 31.709 86.1934 31.709H82.1328C83.263 24.5358 83.8874 20.5892 84.0059 19.8691H77.8672C78.0495 18.7025 78.2044 17.7181 78.332 16.916H84.4707C85.1087 12.8874 85.4323 10.8047 85.4414 10.668C85.0768 10.513 84.6211 10.3763 84.0742 10.2578C83.4909 10.1302 83.1491 10.0664 83.0488 10.0664V10.0527ZM77.2656 15.0566C77.2109 15.4486 76.6185 19.1947 75.4883 26.2949L78.2773 24.4082L77.6211 28.5234C77.5755 28.5417 75.6979 29.6035 71.9883 31.709C71.2409 31.3079 70.8262 31.0892 70.7441 31.0527L72.6719 18.8574C72.7539 18.3288 72.7949 18.0508 72.7949 18.0234H70.8535V18.0098C71.1178 16.2051 71.2728 15.2207 71.3184 15.0566H77.2656ZM115.779 10.0527H122.273V10.0664L120.277 22.7812C119.53 27.5117 119.143 29.9271 119.115 30.0273C119.051 30.0729 118.4 30.6335 117.16 31.709H112.293C112.293 31.6816 112.448 30.6882 112.758 28.7285H115.766C117.115 20.2064 117.821 15.7493 117.885 15.3574C117.885 15.3301 118.113 13.8945 118.568 11.0508C118.222 10.832 117.757 10.6224 117.174 10.4219C116.809 10.3125 116.344 10.194 115.779 10.0664V10.0527ZM100.658 10.1758H104.924C105.152 13.3385 105.266 14.9655 105.266 15.0566L105.293 15.0703C107.79 14.5872 109.987 14.1771 111.883 13.8398L111.336 17.2715C108.383 17.8822 106.437 18.2832 105.498 18.4746L105.744 21.8516C108.989 20.1562 110.689 19.2721 110.844 19.1992V19.2129C110.798 19.5319 110.579 20.9173 110.188 23.3691L105.99 25.5293C106.136 27.4889 106.209 28.528 106.209 28.6465H109.941V28.6602L109.463 31.709H102.367C102.367 31.5996 102.299 30.2051 102.162 27.5254C98.3522 29.5124 96.3516 30.5469 96.1602 30.6289V30.6152C96.5794 27.972 96.7982 26.6003 96.8164 26.5C100.107 24.7865 101.825 23.8932 101.971 23.8203C101.825 20.849 101.747 19.3223 101.738 19.2402C100.654 19.459 99.209 19.7598 97.4043 20.1426V20.1289C97.7598 17.8047 97.9512 16.597 97.9785 16.5059L101.547 15.7949C101.392 12.7415 101.31 11.1602 101.301 11.0508C100.298 10.5404 99.4642 10.2578 98.7988 10.2031V10.1895H98.8125C99.6055 10.1803 100.221 10.1758 100.658 10.1758ZM105.936 10.2715H109.682L109.887 13.6484H106.236C106.218 13.6484 106.209 13.6439 106.209 13.6348C106.209 13.5801 106.118 12.459 105.936 10.2715ZM113.387 11.8438H116.846C115.497 20.4206 114.786 24.946 114.713 25.4199C114.558 26.4043 114.471 26.9557 114.453 27.0742H110.967C111.003 26.8555 111.678 22.5807 112.99 14.25C113.018 14.1224 113.15 13.3203 113.387 11.8438Z" fill="#5481F8"/>
</svg>
