<svg width="111" height="44" viewBox="0 0 111 44" fill="none" xmlns="http://www.w3.org/2000/svg">
<path d="M0 22C0 9.84974 9.84974 0 22 0H89C101.15 0 111 9.84974 111 22C111 34.1503 101.15 44 89 44H22C9.84974 44 0 34.1503 0 22Z" fill="white"/>
<path d="M17.6562 10.627H40.9941C39.6816 18.9121 38.957 23.4785 38.8203 24.3262C38.8021 24.4264 38.5013 26.3451 37.918 30.082C37.681 30.2734 37.0247 30.8385 35.9492 31.7773H18.5176C18.4993 31.7682 18.0254 31.2031 17.0957 30.082H17.082C18.5312 20.9766 19.2786 16.2552 19.3242 15.918C19.3242 15.8997 19.5521 14.4642 20.0078 11.6113C19.2148 11.0645 18.431 10.7409 17.6562 10.6406V10.627ZM22.8379 19.5684H35.457C35.4753 19.5684 35.5026 19.4134 35.5391 19.1035L36.4277 13.5801H23.8086C23.7812 13.5801 23.7493 13.7578 23.7129 14.1133C23.6947 14.2318 23.403 16.0501 22.8379 19.5684ZM22.3867 22.5215L21.375 28.8926H34.0078L35.0059 22.5215H22.3867ZM42.375 9.9707H48.7461L48.9238 14.1133L48.9375 14.168H48.9102H44.6309L44.4805 10.5723C43.9792 10.3717 43.373 10.1849 42.6621 10.0117C42.498 9.99349 42.4023 9.98438 42.375 9.98438V9.9707ZM54.6934 10.0527H61.2832V10.0664L60.2168 16.916H66.4375L65.9727 19.8691H59.7383V19.8828C59.7383 19.8919 59.123 23.7747 57.8926 31.5312C57.8743 31.6497 57.8561 31.709 57.8379 31.709H53.7773C54.9076 24.5358 55.5319 20.5892 55.6504 19.8691H49.5117C49.694 18.7025 49.849 17.7181 49.9766 16.916H56.1152C56.7533 12.8874 57.0768 10.8047 57.0859 10.668C56.7214 10.513 56.2656 10.3763 55.7188 10.2578C55.1354 10.1302 54.7936 10.0664 54.6934 10.0664V10.0527ZM48.9102 15.0566C48.8555 15.4486 48.263 19.1947 47.1328 26.2949L49.9219 24.4082L49.2656 28.5234C49.2201 28.5417 47.3424 29.6035 43.6328 31.709C42.8854 31.3079 42.4707 31.0892 42.3887 31.0527L44.3164 18.8574C44.3984 18.3288 44.4395 18.0508 44.4395 18.0234H42.498V18.0098C42.7624 16.2051 42.9173 15.2207 42.9629 15.0566H48.9102ZM87.4238 10.0527H93.918V10.0664L91.9219 22.7812C91.1745 27.5117 90.7871 29.9271 90.7598 30.0273C90.696 30.0729 90.0443 30.6335 88.8047 31.709H83.9375C83.9375 31.6816 84.0924 30.6882 84.4023 28.7285H87.4102C88.7591 20.2064 89.4655 15.7493 89.5293 15.3574C89.5293 15.3301 89.7572 13.8945 90.2129 11.0508C89.8665 10.832 89.4017 10.6224 88.8184 10.4219C88.4538 10.3125 87.9889 10.194 87.4238 10.0664V10.0527ZM72.3027 10.1758H76.5684C76.7962 13.3385 76.9102 14.9655 76.9102 15.0566L76.9375 15.0703C79.4349 14.5872 81.6315 14.1771 83.5273 13.8398L82.9805 17.2715C80.0273 17.8822 78.0814 18.2832 77.1426 18.4746L77.3887 21.8516C80.6335 20.1562 82.3333 19.2721 82.4883 19.1992V19.2129C82.4427 19.5319 82.224 20.9173 81.832 23.3691L77.6348 25.5293C77.7806 27.4889 77.8535 28.528 77.8535 28.6465H81.5859V28.6602L81.1074 31.709H74.0117C74.0117 31.5996 73.9434 30.2051 73.8066 27.5254C69.9967 29.5124 67.9961 30.5469 67.8047 30.6289V30.6152C68.224 27.972 68.4427 26.6003 68.4609 26.5C71.7513 24.7865 73.4694 23.8932 73.6152 23.8203C73.4694 20.849 73.3919 19.3223 73.3828 19.2402C72.2982 19.459 70.8535 19.7598 69.0488 20.1426V20.1289C69.4043 17.8047 69.5957 16.597 69.623 16.5059L73.1914 15.7949C73.0365 12.7415 72.9544 11.1602 72.9453 11.0508C71.9427 10.5404 71.1087 10.2578 70.4434 10.2031V10.1895H70.457C71.25 10.1803 71.8652 10.1758 72.3027 10.1758ZM77.5801 10.2715H81.3262L81.5312 13.6484H77.8809C77.8626 13.6484 77.8535 13.6439 77.8535 13.6348C77.8535 13.5801 77.7624 12.459 77.5801 10.2715ZM85.0312 11.8438H88.4902C87.1413 20.4206 86.4303 24.946 86.3574 25.4199C86.2025 26.4043 86.1159 26.9557 86.0977 27.0742H82.6113C82.6478 26.8555 83.3223 22.5807 84.6348 14.25C84.6621 14.1224 84.7943 13.3203 85.0312 11.8438Z" fill="#5481F8"/>
</svg>
