<svg width="117" height="44" viewBox="0 0 117 44" fill="none" xmlns="http://www.w3.org/2000/svg">
<path d="M0 22C0 9.84974 9.84974 0 22 0H95C107.15 0 117 9.84974 117 22V22C117 34.1503 107.15 44 95 44H22C9.84973 44 0 34.1503 0 22V22Z" fill="white"/>
<path d="M24.5225 13.3164C24.5225 13.3307 24.4115 13.5599 24.1895 14.0039C24.1536 14.0684 24.1357 14.1042 24.1357 14.1113H36.7793C36.7721 14.1973 36.6504 14.9707 36.4141 16.4316H30.3555L29.9258 19.1387H35.6406L35.2754 21.459H29.5498L29.0557 24.6494H35.1143C35.1071 24.7067 34.9889 25.4515 34.7598 26.8838L34.7383 26.8945H28.7119C28.6904 26.8945 28.6546 27.0771 28.6045 27.4424C28.5973 27.4854 28.4469 28.4486 28.1533 30.332L28.1318 30.3428H24.9521L24.9307 30.332L25.4785 26.8945H17.0352V26.8838L17.3789 24.6494H19.2051L20.0645 19.1387H26.7139C26.9788 17.4271 27.1185 16.5247 27.1328 16.4316H23.04L22.041 18.5479H18.582L20.9453 14.0469C20.2292 13.6458 19.6419 13.4095 19.1836 13.3379V13.3271H20.4404C21.4932 13.3271 22.8538 13.3236 24.5225 13.3164ZM22.4277 24.6494H25.833C25.9261 24.0335 26.0944 22.9701 26.3379 21.459H22.9434C22.9219 21.459 22.8896 21.6595 22.8467 22.0605C22.8252 22.125 22.6855 22.988 22.4277 24.6494ZM46.8125 13.3271H51.8721C51.9007 13.3486 52.0368 13.6566 52.2803 14.251H58.3818L58.0166 16.5605H43.6006C43.5863 16.5605 43.5397 16.7754 43.4609 17.2051C42.487 21.8815 41.8926 24.7389 41.6777 25.7773C41.6706 25.806 41.3555 27.3278 40.7324 30.3428H37.8535V30.332L38.96 24.7891C39.8122 20.5423 40.446 17.3483 40.8613 15.207C40.8971 15.1068 40.915 15.0137 40.915 14.9277C40.7074 14.7917 40.3958 14.6449 39.9805 14.4873C39.5007 14.3369 39.2035 14.2617 39.0889 14.2617V14.251H49.0898C48.9896 14.0003 48.9323 13.8678 48.918 13.8535C48.0228 13.5671 47.5072 13.4238 47.3711 13.4238C47.0918 13.3665 46.9056 13.3379 46.8125 13.3379V13.3271ZM45.3945 17.0225H48.1982C48.1481 17.3949 48.1123 17.6312 48.0908 17.7314H53.043C53.1003 17.2588 53.1396 17.0225 53.1611 17.0225H55.9326L55.9541 17.0332C55.9326 17.1263 55.8968 17.359 55.8467 17.7314H57.7158L57.3936 19.7617H55.5244C55.5173 19.7617 55.4922 19.9229 55.4492 20.2451L55.2988 21.126C55.2559 21.1618 54.7438 21.6022 53.7627 22.4473C53.7555 22.4544 53.7448 22.458 53.7305 22.458H45.8994C45.8708 22.458 45.8278 22.4186 45.7705 22.3398C45.1976 21.6667 44.8538 21.2585 44.7393 21.1152L44.9541 19.7617H43.3643L43.6758 17.7314H45.2871L45.3945 17.0225ZM47.7686 19.7617L47.6504 20.5352H52.5918V20.5244L52.6992 19.7617H47.7686ZM55.8682 22.7695H55.8896L55.2666 26.7227L51.7646 28.1836V28.1943C51.8219 28.223 53.4118 28.9355 56.5342 30.332V30.3428H50.7441C50.7012 30.3285 50.1426 30.085 49.0684 29.6123C48.9251 29.5407 48.8428 29.5049 48.8213 29.5049C47.5609 30.0635 46.9235 30.3428 46.9092 30.3428H41.2803V30.332C43.3213 29.4583 44.9756 28.7493 46.2432 28.2051V28.1943C46.2288 28.1943 45.1976 27.7826 43.1494 26.959V26.9482L43.3965 25.3584H46.7373L46.748 25.3691C46.7337 25.4694 46.7194 25.5911 46.7051 25.7344L49.3906 26.8301C51.6608 25.8776 52.8317 25.3835 52.9033 25.3477C52.9033 25.3262 52.9248 25.1865 52.9678 24.9287H43.375C43.5898 23.5394 43.7044 22.8197 43.7188 22.7695H55.8682ZM59.4668 13.2627H64.4727L64.6123 16.5176L64.623 16.5605H64.6016H61.2393L61.1211 13.7354C60.7272 13.5778 60.251 13.431 59.6924 13.2949C59.5635 13.2806 59.4883 13.2734 59.4668 13.2734V13.2627ZM69.1455 13.3271H74.3232V13.3379L73.4854 18.7197H78.373L78.0078 21.04H73.1094V21.0508C73.1094 21.0579 72.626 24.1087 71.6592 30.2031C71.6449 30.2962 71.6305 30.3428 71.6162 30.3428H68.4258C69.3138 24.7067 69.8044 21.6058 69.8975 21.04H65.0742C65.2174 20.1234 65.3392 19.3499 65.4395 18.7197H70.2627C70.764 15.5544 71.0182 13.918 71.0254 13.8105C70.7389 13.6888 70.3809 13.5814 69.9512 13.4883C69.4928 13.388 69.2243 13.3379 69.1455 13.3379V13.3271ZM64.6016 17.2588C64.5586 17.5667 64.0931 20.5101 63.2051 26.0889L65.3965 24.6064L64.8809 27.8398C64.8451 27.8542 63.3698 28.6885 60.4551 30.3428C59.8678 30.0277 59.542 29.8558 59.4775 29.8271L60.9922 20.2451C61.0566 19.8298 61.0889 19.6113 61.0889 19.5898H59.5635V19.5791C59.7712 18.1611 59.8929 17.3877 59.9287 17.2588H64.6016ZM94.8623 13.3271H99.9648V13.3379L98.3965 23.3281C97.8092 27.0449 97.5049 28.9427 97.4834 29.0215C97.4333 29.0573 96.9212 29.4977 95.9473 30.3428H92.123C92.123 30.3213 92.2448 29.5407 92.4883 28.001H94.8516C95.9115 21.305 96.4665 17.8031 96.5166 17.4951C96.5166 17.4736 96.6956 16.3457 97.0537 14.1113C96.7816 13.9395 96.4163 13.7747 95.958 13.6172C95.6715 13.5312 95.3063 13.4382 94.8623 13.3379V13.3271ZM82.9814 13.4238H86.333C86.512 15.9089 86.6016 17.1872 86.6016 17.2588L86.623 17.2695C88.5853 16.89 90.3112 16.5677 91.8008 16.3027L91.3711 18.999C89.0508 19.4788 87.5218 19.7939 86.7842 19.9443L86.9775 22.5977C89.527 21.2656 90.8626 20.571 90.9844 20.5137V20.5244C90.9486 20.7751 90.7767 21.8636 90.4688 23.79L87.1709 25.4873C87.2855 27.027 87.3428 27.8434 87.3428 27.9365H90.2754V27.9473L89.8994 30.3428H84.3242C84.3242 30.2568 84.2705 29.1611 84.1631 27.0557C81.1696 28.6169 79.5977 29.4297 79.4473 29.4941V29.4834C79.7767 27.4066 79.9486 26.3288 79.9629 26.25C82.5482 24.9036 83.8981 24.2018 84.0127 24.1445C83.8981 21.8099 83.8372 20.6104 83.8301 20.5459C82.9779 20.7178 81.8428 20.9541 80.4248 21.2549V21.2441C80.7041 19.418 80.8545 18.4691 80.876 18.3975L83.6797 17.8389C83.5579 15.4398 83.4935 14.1973 83.4863 14.1113C82.6986 13.7103 82.0433 13.4883 81.5205 13.4453V13.4346H81.5312C82.1543 13.4274 82.6377 13.4238 82.9814 13.4238ZM87.1279 13.499H90.0713L90.2324 16.1523H87.3643C87.3499 16.1523 87.3428 16.1488 87.3428 16.1416C87.3428 16.0986 87.2712 15.2178 87.1279 13.499ZM92.9824 14.7344H95.7002C94.6403 21.4733 94.0817 25.029 94.0244 25.4014C93.9027 26.1748 93.8346 26.6081 93.8203 26.7012H91.0811C91.1097 26.5293 91.6396 23.1706 92.6709 16.625C92.6924 16.5247 92.7962 15.8945 92.9824 14.7344Z" fill="#3AC794"/>
<path d="M22 1H95V-1H22V1ZM95 43H22V45H95V43ZM22 43C10.402 43 1 33.598 1 22H-1C-1 34.7025 9.29745 45 22 45V43ZM116 22C116 33.598 106.598 43 95 43V45C107.703 45 118 34.7025 118 22H116ZM95 1C106.598 1 116 10.402 116 22H118C118 9.29745 107.703 -1 95 -1V1ZM22 -1C9.29745 -1 -1 9.29745 -1 22H1C1 10.402 10.402 1 22 1V-1Z" fill="#89FFD5"/>
</svg>
