<svg width="139" height="44" viewBox="0 0 139 44" fill="none" xmlns="http://www.w3.org/2000/svg">
<path d="M0 22C0 9.84974 9.84974 0 22 0H117C129.15 0 139 9.84974 139 22C139 34.1503 129.15 44 117 44H22C9.84974 44 0 34.1503 0 22Z" fill="white"/>
<path d="M18.3672 10.3535H41.4863V10.3672L39.4492 23.2324L38.3828 29.9316C38.2279 30.0592 37.5807 30.6152 36.4414 31.5996C36.4323 31.6087 36.4186 31.6133 36.4004 31.6133H30.4668C30.7767 29.7357 30.9316 28.7741 30.9316 28.7285H34.4863L34.9922 25.5156H22.3867L21.293 31.668L20.8828 31.6816C20.2266 31.6816 18.9596 31.6908 17.082 31.709C18.6497 22.9134 19.4655 18.3424 19.5293 17.9961C20.3223 13.5755 20.7188 11.3333 20.7188 11.2695C20.3906 11.0508 20.0898 10.8867 19.8164 10.7773C19.4883 10.6406 19.1419 10.5267 18.7773 10.4355C18.6224 10.4082 18.4857 10.3854 18.3672 10.3672V10.3535ZM23.8359 16.3008H36.4414C36.7604 14.332 36.9199 13.334 36.9199 13.3066H24.3281C24.3099 13.3066 24.2689 13.5527 24.2051 14.0449C24.1686 14.2363 24.0456 14.9883 23.8359 16.3008ZM22.8379 22.5488H35.457C35.7943 20.4251 35.9674 19.3268 35.9766 19.2539H23.3848C23.3665 19.2539 23.3301 19.459 23.2754 19.8691C23.2663 19.8783 23.1204 20.7715 22.8379 22.5488ZM54.2695 10.0527H60.709C60.7454 10.0801 60.9186 10.472 61.2285 11.2285H68.9941L68.5293 14.168H50.1816C50.1634 14.168 50.1042 14.4414 50.0039 14.9883C48.7643 20.9401 48.0078 24.5768 47.7344 25.8984C47.7253 25.9349 47.3242 27.8717 46.5312 31.709H42.8672V31.6953L44.2754 24.6406C45.36 19.2357 46.1667 15.1706 46.6953 12.4453C46.7409 12.3177 46.7637 12.1992 46.7637 12.0898C46.4993 11.9167 46.1029 11.7298 45.5742 11.5293C44.9635 11.3379 44.5853 11.2422 44.4395 11.2422V11.2285H57.168C57.0404 10.9095 56.9674 10.7409 56.9492 10.7227C55.8099 10.3581 55.1536 10.1758 54.9805 10.1758C54.625 10.1029 54.388 10.0664 54.2695 10.0664V10.0527ZM52.4648 14.7559H56.0332C55.9694 15.2298 55.9238 15.5306 55.8965 15.6582H62.1992C62.2721 15.0566 62.3223 14.7559 62.3496 14.7559H65.877L65.9043 14.7695C65.877 14.888 65.8314 15.1842 65.7676 15.6582H68.1465L67.7363 18.2422H65.3574C65.3483 18.2422 65.3164 18.4473 65.2617 18.8574L65.0703 19.9785C65.0156 20.0241 64.3639 20.5846 63.1152 21.6602C63.1061 21.6693 63.0924 21.6738 63.0742 21.6738H53.1074C53.071 21.6738 53.0163 21.6237 52.9434 21.5234C52.2142 20.6667 51.7767 20.1471 51.6309 19.9648L51.9043 18.2422H49.8809L50.2773 15.6582H52.3281L52.4648 14.7559ZM55.4863 18.2422L55.3359 19.2266H61.625V19.2129L61.7617 18.2422H55.4863ZM65.7949 22.0703H65.8223L65.0293 27.1016L60.5723 28.9609V28.9746C60.6452 29.0111 62.6686 29.918 66.6426 31.6953V31.709H59.2734C59.2188 31.6908 58.5078 31.3809 57.1406 30.7793C56.9583 30.6882 56.8535 30.6426 56.8262 30.6426C55.222 31.3535 54.4108 31.709 54.3926 31.709H47.2285V31.6953C49.8262 30.5833 51.9316 29.681 53.5449 28.9883V28.9746C53.5267 28.9746 52.2142 28.4505 49.6074 27.4023V27.3887L49.9219 25.3652H54.1738L54.1875 25.3789C54.1693 25.5065 54.151 25.6615 54.1328 25.8438L57.5508 27.2383C60.4401 26.026 61.9303 25.3971 62.0215 25.3516C62.0215 25.3242 62.0488 25.1465 62.1035 24.8184H49.8945C50.168 23.0501 50.3138 22.1341 50.332 22.0703H65.7949ZM70.375 9.9707H76.7461L76.9238 14.1133L76.9375 14.168H76.9102H72.6309L72.4805 10.5723C71.9792 10.3717 71.373 10.1849 70.6621 10.0117C70.498 9.99349 70.4023 9.98438 70.375 9.98438V9.9707ZM82.6934 10.0527H89.2832V10.0664L88.2168 16.916H94.4375L93.9727 19.8691H87.7383V19.8828C87.7383 19.8919 87.123 23.7747 85.8926 31.5312C85.8743 31.6497 85.8561 31.709 85.8379 31.709H81.7773C82.9076 24.5358 83.5319 20.5892 83.6504 19.8691H77.5117C77.694 18.7025 77.849 17.7181 77.9766 16.916H84.1152C84.7533 12.8874 85.0768 10.8047 85.0859 10.668C84.7214 10.513 84.2656 10.3763 83.7188 10.2578C83.1354 10.1302 82.7936 10.0664 82.6934 10.0664V10.0527ZM76.9102 15.0566C76.8555 15.4486 76.263 19.1947 75.1328 26.2949L77.9219 24.4082L77.2656 28.5234C77.2201 28.5417 75.3424 29.6035 71.6328 31.709C70.8854 31.3079 70.4707 31.0892 70.3887 31.0527L72.3164 18.8574C72.3984 18.3288 72.4395 18.0508 72.4395 18.0234H70.498V18.0098C70.7624 16.2051 70.9173 15.2207 70.9629 15.0566H76.9102ZM115.424 10.0527H121.918V10.0664L119.922 22.7812C119.174 27.5117 118.787 29.9271 118.76 30.0273C118.696 30.0729 118.044 30.6335 116.805 31.709H111.938C111.938 31.6816 112.092 30.6882 112.402 28.7285H115.41C116.759 20.2064 117.465 15.7493 117.529 15.3574C117.529 15.3301 117.757 13.8945 118.213 11.0508C117.867 10.832 117.402 10.6224 116.818 10.4219C116.454 10.3125 115.989 10.194 115.424 10.0664V10.0527ZM100.303 10.1758H104.568C104.796 13.3385 104.91 14.9655 104.91 15.0566L104.938 15.0703C107.435 14.5872 109.632 14.1771 111.527 13.8398L110.98 17.2715C108.027 17.8822 106.081 18.2832 105.143 18.4746L105.389 21.8516C108.633 20.1562 110.333 19.2721 110.488 19.1992V19.2129C110.443 19.5319 110.224 20.9173 109.832 23.3691L105.635 25.5293C105.781 27.4889 105.854 28.528 105.854 28.6465H109.586V28.6602L109.107 31.709H102.012C102.012 31.5996 101.943 30.2051 101.807 27.5254C97.9967 29.5124 95.9961 30.5469 95.8047 30.6289V30.6152C96.224 27.972 96.4427 26.6003 96.4609 26.5C99.7513 24.7865 101.469 23.8932 101.615 23.8203C101.469 20.849 101.392 19.3223 101.383 19.2402C100.298 19.459 98.8535 19.7598 97.0488 20.1426V20.1289C97.4043 17.8047 97.5957 16.597 97.623 16.5059L101.191 15.7949C101.036 12.7415 100.954 11.1602 100.945 11.0508C99.9427 10.5404 99.1087 10.2578 98.4434 10.2031V10.1895H98.457C99.25 10.1803 99.8652 10.1758 100.303 10.1758ZM105.58 10.2715H109.326L109.531 13.6484H105.881C105.863 13.6484 105.854 13.6439 105.854 13.6348C105.854 13.5801 105.762 12.459 105.58 10.2715ZM113.031 11.8438H116.49C115.141 20.4206 114.43 24.946 114.357 25.4199C114.202 26.4043 114.116 26.9557 114.098 27.0742H110.611C110.648 26.8555 111.322 22.5807 112.635 14.25C112.662 14.1224 112.794 13.3203 113.031 11.8438Z" fill="#5481F8"/>
</svg>
