<svg width="36" height="36" viewBox="0 0 36 36" fill="none" xmlns="http://www.w3.org/2000/svg">
<circle opacity="0.2" cx="18" cy="18" r="18" fill="url(#paint0_linear_3269_8332)"/>
<circle cx="17.9986" cy="17.9986" r="11.6471" fill="url(#paint1_linear_3269_8332)"/>
<path d="M18.0053 23.2914C17.6177 23.2914 17.298 23.1738 17.046 22.9388C16.794 22.7037 16.668 22.4194 16.668 22.0848C16.668 21.7359 16.795 21.4501 17.0497 21.2272C17.3038 21.0043 17.6225 20.8931 18.0053 20.8931C18.3928 20.8931 18.7104 21.0059 18.9571 21.2309C19.2044 21.4564 19.3277 21.7407 19.3277 22.0848C19.3277 22.4337 19.2054 22.7217 18.9609 22.9494C18.7163 23.177 18.3976 23.2914 18.0053 23.2914ZM19.1816 13.0848L18.927 19.5304C18.919 19.7274 18.757 19.883 18.5601 19.883H17.4065C17.209 19.883 17.047 19.7268 17.0396 19.5294L16.7987 13.0843C16.7908 12.8762 16.9576 12.7031 17.1656 12.7031H18.8153C19.0233 12.7031 19.1901 12.8762 19.1816 13.0848Z" fill="white"/>
<defs>
<linearGradient id="paint0_linear_3269_8332" x1="3.14845e-07" y1="18.4" x2="36" y2="18.4" gradientUnits="userSpaceOnUse">
<stop stop-color="#FF7E48"/>
<stop offset="1" stop-color="#FF4D99"/>
</linearGradient>
<linearGradient id="paint1_linear_3269_8332" x1="6.35156" y1="18.2574" x2="29.6457" y2="18.2574" gradientUnits="userSpaceOnUse">
<stop stop-color="#FF7E48"/>
<stop offset="1" stop-color="#FF4D99"/>
</linearGradient>
</defs>
</svg>
