<svg width="110" height="48" viewBox="0 0 110 48" fill="none" xmlns="http://www.w3.org/2000/svg">
<path d="M0 8C0 3.58172 3.58172 0 8 0H102C106.418 0 110 3.58172 110 8V40C110 44.4183 106.418 48 102 48H8C3.58172 48 0 44.4183 0 40V8Z" fill="#EBF0FF"/>
<path d="M22.7891 12.0527H30.3906L30.418 12.0664C30.0807 12.9232 29.8848 13.4336 29.8301 13.5977H40.3301C40.002 15.7943 39.8197 16.9382 39.7832 17.0293C38.9264 18.8704 38.2884 20.2604 37.8691 21.1992H34.2051C34.2051 21.181 34.6426 20.1283 35.5176 18.041C35.8184 17.3483 35.9688 16.9928 35.9688 16.9746H28.5039L25.7422 24.4668H21.75L25.7285 13.1738C24.6439 12.5632 23.6641 12.194 22.7891 12.0664V12.0527ZM14.9141 12.9688H21.4766C22.1055 17.8359 22.4199 20.2878 22.4199 20.3242H18.1406C18.1224 20.1237 17.9082 17.9408 17.498 13.7754C16.8327 13.4655 16.181 13.2331 15.543 13.0781C15.1693 13.0143 14.9596 12.9824 14.9141 12.9824V12.9688ZM29.5977 18.3691H33.7129C33.7038 18.4876 33.4531 20.0918 32.9609 23.1816C35.6771 29.0605 37.2995 32.5651 37.8281 33.6953V33.709H33.043L30.2949 27.2559C30.2949 27.2376 30.2904 27.2285 30.2812 27.2285H30.2676C30.2676 27.2467 30.2129 27.306 30.1035 27.4062C26.2207 31.5807 24.2611 33.6816 24.2246 33.709H19.2344L27.4238 24.7402C28.3171 23.765 28.791 23.2409 28.8457 23.168L29.5977 18.3691ZM18.0586 21.9785H22.2148L18.0176 33.4082H14.0801V33.3945C16.459 26.5768 17.7806 22.7897 18.0449 22.0332L18.0586 21.9785ZM46.0312 12.5039H68.4531V12.5176C68.4531 12.5449 68.3118 13.4609 68.0293 15.2656H61.7812L61.6035 16.3047H67.7559V16.3184C67.7376 16.4733 67.4733 18.1413 66.9629 21.3223C66.9538 21.3223 66.2975 21.8828 64.9941 23.0039H46.0586C46.013 22.9401 45.5391 22.375 44.6367 21.3086L45.4434 16.3047H51.6914L51.8418 15.2656H45.6074C45.6074 15.2292 45.7487 14.3086 46.0312 12.5039ZM55.5195 15.2656L55.3555 16.3047H57.9395L58.0898 15.2656H55.5195ZM48.875 19.0801L48.6973 20.2285H51.0625L51.2402 19.0801H48.875ZM54.7402 20.2285H57.3105V20.2148C57.3105 20.1875 57.3698 19.8092 57.4883 19.0801H54.9316C54.9134 19.0801 54.8724 19.3307 54.8086 19.832C54.8086 19.8411 54.7858 19.9733 54.7402 20.2285ZM61.166 19.0801C61.166 19.0983 61.1068 19.4811 60.9883 20.2285H63.2578V20.2148C63.3672 19.4948 63.4219 19.1165 63.4219 19.0801H61.166ZM46.7695 23.332H50.9258C50.8346 23.888 50.7891 24.1797 50.7891 24.207H61.3301C61.3483 24.207 61.3848 23.9974 61.4395 23.5781C61.4668 23.4141 61.485 23.332 61.4941 23.332H65.6367V23.3457C65.6367 23.3913 65.5911 23.6784 65.5 24.207H67.1406L67.168 24.2207C67.0859 24.6491 66.9355 25.5742 66.7168 26.9961H65.0625C64.7799 28.7826 64.6341 29.7031 64.625 29.7578L59.457 31.125V31.1387C59.6849 31.2207 62.0046 32.0729 66.416 33.6953V33.709H57.9805C57.9167 33.709 57.2148 33.4902 55.875 33.0527C55.2188 32.8613 54.7995 32.7337 54.6172 32.6699C52.2474 33.3626 51.0352 33.709 50.9805 33.709H41.6973C41.7155 33.6816 41.9388 33.6087 42.3672 33.4902C42.3763 33.4811 45.0651 32.6517 50.4336 31.002V30.9883C47.3255 30.168 45.7624 29.7578 45.7441 29.7578L46.1816 26.9961H43.8574L43.8301 26.9824C43.8574 26.8639 44.0033 25.9388 44.2676 24.207H46.6328V24.1934C46.6328 24.1478 46.6784 23.8607 46.7695 23.332ZM50.2422 27.6523C53.6237 28.6732 55.3828 29.2109 55.5195 29.2656C56.0755 29.0924 57.8346 28.5547 60.7969 27.6523V27.6387C60.7969 27.6113 60.8288 27.3971 60.8926 26.9961H50.3652C50.3379 26.9961 50.3014 27.1966 50.2559 27.5977C50.2467 27.5977 50.2422 27.6159 50.2422 27.6523ZM82.4668 12.4492H95.9062V12.4629C95.6146 14.2858 95.4551 15.2565 95.4277 15.375C95.3275 15.5755 94.7305 16.8561 93.6367 19.2168H95.6875L95.7148 19.2305L95.291 21.8965C94.9082 22.4525 93.6686 24.3164 91.5723 27.4883C93.2949 31.6081 94.1562 33.6816 94.1562 33.709H90.2188C90.2005 33.6999 90.0273 33.3171 89.6992 32.5605C89.2526 31.5762 89.0293 31.0749 89.0293 31.0566C89.0111 31.0658 88.3958 31.9453 87.1836 33.6953L87.1562 33.709H83.1641V33.6953L87.4707 27.6797V27.666L85.9531 23.9199V23.9062H89.7949C89.8132 23.9062 89.8678 24.0156 89.959 24.2344H89.9727L91.2715 22.1699H89.7129C89.7038 22.1608 89.5488 21.8874 89.248 21.3496C89.1934 21.2129 89.0658 20.9622 88.8652 20.5977C88.8652 20.5794 89.3164 19.6816 90.2188 17.9043C90.7018 16.9473 91.1348 16.0814 91.5176 15.3066H87.7441C87.6348 15.7168 86.5729 19.4492 84.5586 26.5039C83.2096 31.2708 82.526 33.6725 82.5078 33.709H78.8164L78.8027 33.6953C81.1452 25.6745 82.3711 21.4635 82.4805 21.0625C82.526 20.944 83.0911 19.0254 84.1758 15.3066H82.0293V15.293C82.0293 15.2656 82.1751 14.3177 82.4668 12.4492ZM72.6094 12.4629H79.8008C77.3034 16.5553 75.9909 18.7155 75.8633 18.9434H76.6289C76.6927 18.834 76.8203 18.6471 77.0117 18.3828H80.7031L76.0273 25.6699H76.041L79.7461 25.4238L79.377 28.4316C74.7012 28.8327 72.181 29.0469 71.8164 29.0742L70.9824 27.3652L74.6055 21.8145H72.3223C72.2767 21.7415 71.9258 21.1719 71.2695 20.1055L75.2617 13.5977V13.584C75.1615 13.4564 74.8835 13.2786 74.4277 13.0508C73.5801 12.6953 72.974 12.5039 72.6094 12.4766V12.4629ZM79.1992 29.7441V29.7578C78.9531 31.763 78.8255 32.7747 78.8164 32.793L69.8477 33.709C69.8477 33.6999 69.8431 33.6953 69.834 33.6953L70.2168 30.6602C76.1322 30.0495 79.1263 29.7441 79.1992 29.7441Z" fill="#5481F8"/>
</svg>
