<svg width="110" height="48" viewBox="0 0 110 48" fill="none" xmlns="http://www.w3.org/2000/svg">
<path d="M0 8C0 3.58172 3.58172 0 8 0H102C106.418 0 110 3.58172 110 8V40C110 44.4183 106.418 48 102 48H8C3.58172 48 0 44.4183 0 40V8Z" fill="#EFFEFF"/>
<path d="M25.4414 12.1621H32.0449L31.7715 13.8711H40.1797V13.8848C39.9427 15.4251 39.7878 16.4049 39.7148 16.8242H31.3066L30.8281 19.7773H39.8516L39.3867 22.7305H17.1699L17.6348 19.7773H26.7402C26.9225 18.6562 27.0775 17.6719 27.2051 16.8242H22.5977L21.9961 18.4102H17.8945V18.3965C19.1068 15.1517 19.7311 13.4564 19.7676 13.3105C19.1842 12.9824 18.4414 12.7363 17.5391 12.5723V12.5586H24.2109V12.5723C24.0104 13.2194 23.8737 13.6523 23.8008 13.8711H27.6836L27.8203 12.9824H27.8066C27.4785 12.7819 26.9818 12.5814 26.3164 12.3809C25.9974 12.2988 25.7057 12.2305 25.4414 12.1758V12.1621ZM38.9219 23.8105L37.623 32.0137L35.668 33.709H17.8398C17.7031 33.5632 17.2246 32.998 16.4043 32.0137C17.2428 26.7181 17.6758 23.9837 17.7031 23.8105H38.9219ZM21.3262 26.7637C20.9069 29.4434 20.6973 30.7969 20.6973 30.8242H33.7129C34.1322 28.181 34.3509 26.8275 34.3691 26.7637H21.3262ZM54.6992 12.0117H60.0586L59.7578 12.6406H66.1289L65.7734 14.9238H64.8711C64.5156 17.166 64.3242 18.3737 64.2969 18.5469C62.9479 19.2122 62.2142 19.5859 62.0957 19.668C62.1139 19.668 63.2806 20.4473 65.5957 22.0059V22.0195H65.582L61.0703 22.1152C60.9701 22.0332 60.3958 21.6777 59.3477 21.0488C57.9714 21.7689 57.2786 22.1289 57.2695 22.1289H52.6895C52.8171 22.0286 54.2344 21.181 56.9414 19.5859L55.2324 18.5332C55.2324 18.5059 55.3691 17.6628 55.6426 16.0039H58.8555L58.6641 17.207L59.6348 17.9727C60.5553 17.4714 61.0293 17.2116 61.0566 17.1934L61.3984 14.9238H58.9512C58.9329 14.9238 58.8099 15.1927 58.582 15.7305H55.1777L56.5586 12.5449V12.5312C56.2031 12.3672 55.7702 12.2305 55.2598 12.1211C54.9225 12.0482 54.7357 12.0117 54.6992 12.0117ZM42.7637 12.0527H48.2324L48.123 12.8457H50.0098L50.1191 12.0527H53.4961C53.4232 12.5358 53.3867 12.8001 53.3867 12.8457H55.0547V12.8594C55.0547 12.8958 54.9635 13.4883 54.7812 14.6367H53.1133C53.0859 14.6367 53.0495 14.8145 53.0039 15.1699L52.9902 15.1836H49.627L49.709 14.6367H47.8359L47.7539 15.0879H44.2949C44.304 15.015 44.3223 14.8646 44.3496 14.6367H42.6816C42.8548 13.5156 42.9505 12.9186 42.9688 12.8457H44.7461L44.7734 12.6406C44.2995 12.4219 43.7936 12.2578 43.2559 12.1484C43.0098 12.0938 42.8457 12.0664 42.7637 12.0664V12.0527ZM43.3379 15.375H46.5645V15.3887C46.4004 15.6621 46.3184 15.8034 46.3184 15.8125H54.5898V15.8262C54.1341 18.679 53.9017 20.1237 53.8926 20.1602L52.1836 21.623H49.9004L50.1602 19.8867H50.8027L51.1719 17.6582H45.3203L45.0742 18.041H41.6973C42.7363 16.3457 43.2832 15.457 43.3379 15.375ZM42.7363 18.5879H49.9961C49.7409 20.1465 49.5996 20.9805 49.5723 21.0898C48.8158 21.737 48.4102 22.0879 48.3555 22.1426H43.2559L42.3535 21.0762C42.6087 19.4538 42.7363 18.6243 42.7363 18.5879ZM45.3613 19.8867L45.2246 20.8438H46.7969L46.9473 19.8867H45.3613ZM50.6934 22.3887H54.5488C54.5762 22.3978 54.6855 22.6348 54.877 23.0996C54.8952 23.127 54.9089 23.1406 54.918 23.1406H64.502L64.2422 24.8223H41.7246L41.9844 23.1406H51.1035V23.127C50.8939 22.735 50.7572 22.4935 50.6934 22.4023V22.3887ZM42.8457 25.5605H62.998C62.834 26.5267 62.7474 27.0371 62.7383 27.0918H42.6133V27.0781C42.6133 27.0508 42.6908 26.5449 42.8457 25.5605ZM62.6289 27.8438L62.3555 29.5254H42.2168L42.4902 27.8438H62.6289ZM41.916 30.0449H62.3281V30.0586C62.1549 31.2435 62.0365 31.9727 61.9727 32.2461L60.2773 33.709H42.8184L41.5605 32.2324L41.916 30.0449ZM45.3477 32.2188H58.2129V32.2051C58.2129 32.1777 58.2493 31.9408 58.3223 31.4941H45.4844C45.457 31.4941 45.4206 31.6719 45.375 32.0273C45.375 32.0273 45.3659 32.0911 45.3477 32.2188ZM80.1426 12.4492H93.582V12.4629C93.2904 14.2858 93.1309 15.2565 93.1035 15.375C93.0033 15.5755 92.4062 16.8561 91.3125 19.2168H93.3633L93.3906 19.2305L92.9668 21.8965C92.584 22.4525 91.3444 24.3164 89.248 27.4883C90.9707 31.6081 91.832 33.6816 91.832 33.709H87.8945C87.8763 33.6999 87.7031 33.3171 87.375 32.5605C86.9284 31.5762 86.7051 31.0749 86.7051 31.0566C86.6868 31.0658 86.0716 31.9453 84.8594 33.6953L84.832 33.709H80.8398V33.6953L85.1465 27.6797V27.666L83.6289 23.9199V23.9062H87.4707C87.4889 23.9062 87.5436 24.0156 87.6348 24.2344H87.6484L88.9473 22.1699H87.3887C87.3796 22.1608 87.2246 21.8874 86.9238 21.3496C86.8691 21.2129 86.7415 20.9622 86.541 20.5977C86.541 20.5794 86.9922 19.6816 87.8945 17.9043C88.3776 16.9473 88.8105 16.0814 89.1934 15.3066H85.4199C85.3105 15.7168 84.2487 19.4492 82.2344 26.5039C80.8854 31.2708 80.2018 33.6725 80.1836 33.709H76.4922L76.4785 33.6953C78.821 25.6745 80.0469 21.4635 80.1562 21.0625C80.2018 20.944 80.7669 19.0254 81.8516 15.3066H79.7051V15.293C79.7051 15.2656 79.8509 14.3177 80.1426 12.4492ZM70.2852 12.4629H77.4766C74.9792 16.5553 73.6667 18.7155 73.5391 18.9434H74.3047C74.3685 18.834 74.4961 18.6471 74.6875 18.3828H78.3789L73.7031 25.6699H73.7168L77.4219 25.4238L77.0527 28.4316C72.377 28.8327 69.8568 29.0469 69.4922 29.0742L68.6582 27.3652L72.2812 21.8145H69.998C69.9525 21.7415 69.6016 21.1719 68.9453 20.1055L72.9375 13.5977V13.584C72.8372 13.4564 72.5592 13.2786 72.1035 13.0508C71.2559 12.6953 70.6497 12.5039 70.2852 12.4766V12.4629ZM76.875 29.7441V29.7578C76.6289 31.763 76.5013 32.7747 76.4922 32.793L67.5234 33.709C67.5234 33.6999 67.5189 33.6953 67.5098 33.6953L67.8926 30.6602C73.8079 30.0495 76.8021 29.7441 76.875 29.7441Z" fill="#2FD8E2"/>
</svg>
