<svg width="110" height="48" viewBox="0 0 110 48" fill="none" xmlns="http://www.w3.org/2000/svg">
<path d="M0 8C0 3.58172 3.58172 0 8 0H102C106.418 0 110 3.58172 110 8V40C110 44.4183 106.418 48 102 48H8C3.58172 48 0 44.4183 0 40V8Z" fill="#FFE8E8"/>
<path d="M16.1992 12.1211H40.9316C40.6491 13.9622 40.4987 14.9147 40.4805 14.9785H34.4375C33.7721 19.1986 33.4395 21.3268 33.4395 21.3633H39.5234C39.1953 23.3594 39.0312 24.3802 39.0312 24.4258H21.1758C21.1576 24.4258 21.1074 24.6081 21.0254 24.9727L18.7148 33.709H14.4629V33.6953C14.6452 32.9388 15.4108 29.8945 16.7598 24.5625C17.0788 23.2956 17.2702 22.5345 17.334 22.2793C16.9056 21.9785 16.3724 21.7233 15.7344 21.5137C15.3789 21.4225 15.1602 21.377 15.0781 21.377V21.3633H23.2676C23.2949 21.3633 23.3314 21.1673 23.377 20.7754C23.3952 20.7116 23.7005 18.7793 24.293 14.9785H18.2773L18.2637 14.9648C18.4551 13.7799 18.5553 13.1374 18.5645 13.0371C18.0905 12.6361 17.4388 12.3535 16.6094 12.1895C16.3997 12.153 16.263 12.1348 16.1992 12.1348V12.1211ZM28.1758 14.9785L27.1777 21.3633H29.5293C29.5475 21.3633 29.5794 21.2083 29.625 20.8984C29.6341 20.8346 29.944 18.8613 30.5547 14.9785H28.1758ZM18.4961 16.1543H22.2832C22.5931 18.9525 22.748 20.3698 22.748 20.4062H18.8242L18.4961 16.1543ZM35.9004 16.1543H39.6738C38.6895 18.7337 38.1471 20.151 38.0469 20.4062H34.2324V20.3926C35.2806 17.7402 35.8366 16.3275 35.9004 16.1543ZM67.8516 12.0527V12.0664L67.4141 14.7324C62.237 14.7962 59.3978 14.8281 58.8965 14.8281C58.8236 14.8281 58.7871 14.8464 58.7871 14.8828C58.778 14.974 58.7324 15.252 58.6504 15.7168H68.0703L67.6328 18.3965H58.2266L58.0898 19.1895H66.6621V19.2031C66.5436 19.9779 66.1927 22.1927 65.6094 25.8477C65.4271 25.9844 64.7799 26.5404 63.668 27.5156C63.6497 27.5247 63.6315 27.5293 63.6133 27.5293H56.791C56.7728 27.5293 56.7409 27.7344 56.6953 28.1445C56.6862 28.1445 56.6725 28.2038 56.6543 28.3223H65.418L65.0352 30.7012L65.0215 30.7148H56.2852C56.2669 30.7148 56.2305 30.9427 56.1758 31.3984H65.5684C65.3678 32.7292 65.2493 33.4993 65.2129 33.709H42.2988L42.668 31.3984H52.0742C52.0833 31.2617 52.1198 31.0339 52.1836 30.7148H43.2832L43.2695 30.7012C43.5156 29.1517 43.6387 28.3587 43.6387 28.3223H52.5391C52.5573 28.3223 52.5938 28.1172 52.6484 27.707C52.6576 27.707 52.6667 27.6478 52.6758 27.5293H45.6621L44.2402 25.834C44.9421 21.4316 45.293 19.2168 45.293 19.1895H53.9883C54.0065 19.1895 54.043 18.9844 54.0977 18.5742C54.1068 18.5742 54.1159 18.515 54.125 18.3965H44.7324L45.1426 15.7168H54.5352C54.5625 15.7168 54.5944 15.5664 54.6309 15.2656C54.6309 15.2656 54.6491 15.1243 54.6855 14.8418C54.0658 14.8418 51.1582 14.8737 45.9629 14.9375V14.9238C45.9629 14.8965 46.0996 14.0397 46.373 12.3535C46.4004 12.3535 46.4688 12.349 46.5781 12.3398C46.9154 12.3398 51.3359 12.2806 59.8398 12.1621C64.6888 12.0892 67.3594 12.0527 67.8516 12.0527ZM48.8066 21.4863C48.7428 21.8783 48.7018 22.138 48.6836 22.2656H53.5234C53.5234 22.2383 53.5599 21.9785 53.6328 21.4863H48.8066ZM57.748 21.4863C57.6569 21.9603 57.6113 22.2201 57.6113 22.2656H62.2871C62.36 21.8464 62.401 21.5866 62.4102 21.4863H57.748ZM48.2051 25.2598H53.0449C53.1178 24.7767 53.1543 24.5078 53.1543 24.4531H48.3555C48.3372 24.4531 48.3008 24.6582 48.2461 25.0684C48.237 25.0684 48.2233 25.1322 48.2051 25.2598ZM57.1465 25.2598H61.8223V25.2461L61.9316 24.4531H57.2832C57.2559 24.4531 57.2194 24.6536 57.1738 25.0547C57.1647 25.0547 57.1556 25.123 57.1465 25.2598ZM82.084 12.4492H95.5234V12.4629C95.2318 14.2858 95.0723 15.2565 95.0449 15.375C94.9447 15.5755 94.3477 16.8561 93.2539 19.2168H95.3047L95.332 19.2305L94.9082 21.8965C94.5254 22.4525 93.2858 24.3164 91.1895 27.4883C92.9121 31.6081 93.7734 33.6816 93.7734 33.709H89.8359C89.8177 33.6999 89.6445 33.3171 89.3164 32.5605C88.8698 31.5762 88.6465 31.0749 88.6465 31.0566C88.6283 31.0658 88.013 31.9453 86.8008 33.6953L86.7734 33.709H82.7812V33.6953L87.0879 27.6797V27.666L85.5703 23.9199V23.9062H89.4121C89.4303 23.9062 89.485 24.0156 89.5762 24.2344H89.5898L90.8887 22.1699H89.3301C89.321 22.1608 89.166 21.8874 88.8652 21.3496C88.8105 21.2129 88.6829 20.9622 88.4824 20.5977C88.4824 20.5794 88.9336 19.6816 89.8359 17.9043C90.319 16.9473 90.752 16.0814 91.1348 15.3066H87.3613C87.252 15.7168 86.1901 19.4492 84.1758 26.5039C82.8268 31.2708 82.1432 33.6725 82.125 33.709H78.4336L78.4199 33.6953C80.7624 25.6745 81.9883 21.4635 82.0977 21.0625C82.1432 20.944 82.7083 19.0254 83.793 15.3066H81.6465V15.293C81.6465 15.2656 81.7923 14.3177 82.084 12.4492ZM72.2266 12.4629H79.418C76.9206 16.5553 75.6081 18.7155 75.4805 18.9434H76.2461C76.3099 18.834 76.4375 18.6471 76.6289 18.3828H80.3203L75.6445 25.6699H75.6582L79.3633 25.4238L78.9941 28.4316C74.3184 28.8327 71.7982 29.0469 71.4336 29.0742L70.5996 27.3652L74.2227 21.8145H71.9395C71.8939 21.7415 71.543 21.1719 70.8867 20.1055L74.8789 13.5977V13.584C74.7786 13.4564 74.5007 13.2786 74.0449 13.0508C73.1973 12.6953 72.5911 12.5039 72.2266 12.4766V12.4629ZM78.8164 29.7441V29.7578C78.5703 31.763 78.4427 32.7747 78.4336 32.793L69.4648 33.709C69.4648 33.6999 69.4603 33.6953 69.4512 33.6953L69.834 30.6602C75.7493 30.0495 78.7435 29.7441 78.8164 29.7441Z" fill="#FF4040"/>
</svg>
