<svg width="110" height="48" viewBox="0 0 110 48" fill="none" xmlns="http://www.w3.org/2000/svg">
<path d="M0 8C0 3.58172 3.58172 0 8 0H102C106.418 0 110 3.58172 110 8V40C110 44.4183 106.418 48 102 48H8C3.58172 48 0 44.4183 0 40V8Z" fill="#FFF4E8"/>
<path d="M24.2793 12.1484H31.0332C31.2702 13.2331 31.4069 13.8301 31.4434 13.9395H40.1113C39.8105 15.8535 39.651 16.8242 39.6328 16.8516H31.0879L30.3086 21.7734H38.2109L38.2383 21.7871L37.7734 24.6719H29.8711C29.8438 24.6719 29.8027 24.9225 29.748 25.4238L28.8594 30.8789H37.7324C37.4499 32.6654 37.2995 33.6087 37.2812 33.709H14.2852L14.7227 30.8789H24.7852V30.8652C25.3776 27.0553 25.7012 24.9954 25.7559 24.6855L25.7285 24.6719H17.3477L17.7988 21.7734H26.207C26.7083 18.638 26.9681 16.9974 26.9863 16.8516H17.9492V16.8379L18.291 14.582C18.291 14.5729 18.2865 14.5684 18.2773 14.5684C17.4844 14.2402 16.9056 14.0625 16.541 14.0352C16.3314 13.9805 16.14 13.9531 15.9668 13.9531V13.9395H27.1641C27.0456 13.3835 26.9681 13.069 26.9316 12.9961C26.6126 12.8138 26.2435 12.6452 25.8242 12.4902C25.1133 12.2715 24.5983 12.1621 24.2793 12.1621V12.1484ZM45.8262 12.5039H68.248V12.5176C68.248 12.5449 68.1068 13.4609 67.8242 15.2656H61.5762L61.3984 16.3047H67.5508V16.3184C67.5326 16.4733 67.2682 18.1413 66.7578 21.3223C66.7487 21.3223 66.0924 21.8828 64.7891 23.0039H45.8535C45.8079 22.9401 45.334 22.375 44.4316 21.3086L45.2383 16.3047H51.4863L51.6367 15.2656H45.4023C45.4023 15.2292 45.5436 14.3086 45.8262 12.5039ZM55.3145 15.2656L55.1504 16.3047H57.7344L57.8848 15.2656H55.3145ZM48.6699 19.0801L48.4922 20.2285H50.8574L51.0352 19.0801H48.6699ZM54.5352 20.2285H57.1055V20.2148C57.1055 20.1875 57.1647 19.8092 57.2832 19.0801H54.7266C54.7083 19.0801 54.6673 19.3307 54.6035 19.832C54.6035 19.8411 54.5807 19.9733 54.5352 20.2285ZM60.9609 19.0801C60.9609 19.0983 60.9017 19.4811 60.7832 20.2285H63.0527V20.2148C63.1621 19.4948 63.2168 19.1165 63.2168 19.0801H60.9609ZM46.5645 23.332H50.7207C50.6296 23.888 50.584 24.1797 50.584 24.207H61.125C61.1432 24.207 61.1797 23.9974 61.2344 23.5781C61.2617 23.4141 61.2799 23.332 61.2891 23.332H65.4316V23.3457C65.4316 23.3913 65.3861 23.6784 65.2949 24.207H66.9355L66.9629 24.2207C66.8809 24.6491 66.7305 25.5742 66.5117 26.9961H64.8574C64.5749 28.7826 64.429 29.7031 64.4199 29.7578L59.252 31.125V31.1387C59.4798 31.2207 61.7995 32.0729 66.2109 33.6953V33.709H57.7754C57.7116 33.709 57.0098 33.4902 55.6699 33.0527C55.0137 32.8613 54.5944 32.7337 54.4121 32.6699C52.0423 33.3626 50.8301 33.709 50.7754 33.709H41.4922C41.5104 33.6816 41.7337 33.6087 42.1621 33.4902C42.1712 33.4811 44.86 32.6517 50.2285 31.002V30.9883C47.1204 30.168 45.5573 29.7578 45.5391 29.7578L45.9766 26.9961H43.6523L43.625 26.9824C43.6523 26.8639 43.7982 25.9388 44.0625 24.207H46.4277V24.1934C46.4277 24.1478 46.4733 23.8607 46.5645 23.332ZM50.0371 27.6523C53.4186 28.6732 55.1777 29.2109 55.3145 29.2656C55.8704 29.0924 57.6296 28.5547 60.5918 27.6523V27.6387C60.5918 27.6113 60.6237 27.3971 60.6875 26.9961H50.1602C50.1328 26.9961 50.0964 27.1966 50.0508 27.5977C50.0417 27.5977 50.0371 27.6159 50.0371 27.6523ZM82.2617 12.4492H95.7012V12.4629C95.4095 14.2858 95.25 15.2565 95.2227 15.375C95.1224 15.5755 94.5254 16.8561 93.4316 19.2168H95.4824L95.5098 19.2305L95.0859 21.8965C94.7031 22.4525 93.4635 24.3164 91.3672 27.4883C93.0898 31.6081 93.9512 33.6816 93.9512 33.709H90.0137C89.9954 33.6999 89.8223 33.3171 89.4941 32.5605C89.0475 31.5762 88.8242 31.0749 88.8242 31.0566C88.806 31.0658 88.1908 31.9453 86.9785 33.6953L86.9512 33.709H82.959V33.6953L87.2656 27.6797V27.666L85.748 23.9199V23.9062H89.5898C89.6081 23.9062 89.6628 24.0156 89.7539 24.2344H89.7676L91.0664 22.1699H89.5078C89.4987 22.1608 89.3438 21.8874 89.043 21.3496C88.9883 21.2129 88.8607 20.9622 88.6602 20.5977C88.6602 20.5794 89.1113 19.6816 90.0137 17.9043C90.4967 16.9473 90.9297 16.0814 91.3125 15.3066H87.5391C87.4297 15.7168 86.3678 19.4492 84.3535 26.5039C83.0046 31.2708 82.321 33.6725 82.3027 33.709H78.6113L78.5977 33.6953C80.9401 25.6745 82.166 21.4635 82.2754 21.0625C82.321 20.944 82.8861 19.0254 83.9707 15.3066H81.8242V15.293C81.8242 15.2656 81.9701 14.3177 82.2617 12.4492ZM72.4043 12.4629H79.5957C77.0983 16.5553 75.7858 18.7155 75.6582 18.9434H76.4238C76.4876 18.834 76.6152 18.6471 76.8066 18.3828H80.498L75.8223 25.6699H75.8359L79.541 25.4238L79.1719 28.4316C74.4961 28.8327 71.9759 29.0469 71.6113 29.0742L70.7773 27.3652L74.4004 21.8145H72.1172C72.0716 21.7415 71.7207 21.1719 71.0645 20.1055L75.0566 13.5977V13.584C74.9564 13.4564 74.6784 13.2786 74.2227 13.0508C73.375 12.6953 72.7689 12.5039 72.4043 12.4766V12.4629ZM78.9941 29.7441V29.7578C78.748 31.763 78.6204 32.7747 78.6113 32.793L69.6426 33.709C69.6426 33.6999 69.638 33.6953 69.6289 33.6953L70.0117 30.6602C75.9271 30.0495 78.9212 29.7441 78.9941 29.7441Z" fill="#FC8129"/>
</svg>
