<?xml version="1.0" standalone="no"?><!DOCTYPE svg PUBLIC "-//W3C//DTD SVG 1.1//EN" "http://www.w3.org/Graphics/SVG/1.1/DTD/svg11.dtd"><svg t="1602683252236" class="icon" viewBox="0 0 1024 1024" version="1.1" xmlns="http://www.w3.org/2000/svg" p-id="2536" xmlns:xlink="http://www.w3.org/1999/xlink" width="48" height="48"><defs><style type="text/css"></style></defs><path d="M140.373333 793.173333a42.666667 42.666667 0 0 0-12.373333 29.866667v7.68a42.666667 42.666667 0 0 0 12.373333 29.866667l23.04 23.04a42.666667 42.666667 0 0 0 29.866667 12.373333h7.68a42.666667 42.666667 0 0 0 29.866667-12.373333L474.453333 640 384 549.546667zM725.333333 469.333333a170.666667 170.666667 0 0 0 170.666667-170.666666v-13.653334a21.76 21.76 0 0 0-6.4-15.36l-7.253333-7.253333a21.333333 21.333333 0 0 0-30.293334 0l-66.56 66.56a21.76 21.76 0 0 1-29.866666 0l-60.586667-60.586667a21.333333 21.333333 0 0 1 0-29.866666L761.6 170.666667a21.333333 21.333333 0 0 0 0-30.293334l-7.253333-7.253333a21.76 21.76 0 0 0-15.36-5.12H725.333333a170.666667 170.666667 0 0 0-170.666666 170.666667 165.973333 165.973333 0 0 0 13.653333 66.56l-71.253333 71.253333-146.346667-145.92-37.546667-69.973333a85.333333 85.333333 0 0 0-28.16-30.72L196.693333 131.413333a21.333333 21.333333 0 0 0-26.026666 2.986667L134.4 170.666667a21.333333 21.333333 0 0 0-2.986667 26.88l58.453334 87.466666a85.333333 85.333333 0 0 0 30.72 28.16l69.973333 37.546667L579.84 640l-21.333333 21.333333a21.76 21.76 0 0 0 0 30.293334l192 192a42.666667 42.666667 0 0 0 29.866666 12.373333h50.346667a42.666667 42.666667 0 0 0 29.866667-12.373333l23.04-23.04a42.666667 42.666667 0 0 0 12.373333-29.866667v-50.346667a42.666667 42.666667 0 0 0-12.373333-29.866666l-192-192a21.76 21.76 0 0 0-30.293334 0l-21.333333 21.333333-52.48-52.906667 71.253333-71.253333A165.973333 165.973333 0 0 0 725.333333 469.333333z" p-id="2537" fill="#198BCA"></path></svg>