<svg width="36" height="36" viewBox="0 0 36 36" fill="none" xmlns="http://www.w3.org/2000/svg">
<path d="M36 0H0V36H36V0Z" fill="white" fill-opacity="0.01"/>
<path d="M18 33C22.1421 33 25.8921 31.3211 28.6066 28.6066C31.3211 25.8921 33 22.1421 33 18C33 13.8579 31.3211 10.1079 28.6066 7.39339C25.8921 4.67893 22.1421 3 18 3C13.8579 3 10.1079 4.67893 7.39339 7.39339C4.67893 10.1079 3 13.8579 3 18C3 22.1421 4.67893 25.8921 7.39339 28.6066C10.1079 31.3211 13.8579 33 18 33Z" stroke="#5481F8" stroke-width="3" stroke-linejoin="round"/>
<path fill-rule="evenodd" clip-rule="evenodd" d="M18 7.96875C14.6863 7.96875 12 10.655 12 13.9688C12 14.7972 12.6716 15.4688 13.5 15.4688C14.3284 15.4688 15 14.7972 15 13.9688C15 12.3119 16.3432 10.9688 18 10.9688C19.6568 10.9688 21 12.3119 21 13.9688C21 15.6256 19.6568 16.9688 18 16.9688C17.1716 16.9688 16.5 17.6403 16.5 18.4688V21.4688C16.5 22.2972 17.1716 22.9688 18 22.9688C18.8284 22.9688 19.5 22.2972 19.5 21.4688V19.7797C22.0878 19.1137 24 16.7645 24 13.9688C24 10.655 21.3137 7.96875 18 7.96875ZM19.875 26.3438C19.875 27.3793 19.0355 28.2188 18 28.2188C16.9645 28.2188 16.125 27.3793 16.125 26.3438C16.125 25.3082 16.9645 24.4688 18 24.4688C19.0355 24.4688 19.875 25.3082 19.875 26.3438Z" fill="#FFA450"/>
</svg>
