<svg width="36" height="36" viewBox="0 0 36 36" fill="none" xmlns="http://www.w3.org/2000/svg">
<path d="M36 0H0V36H36V0Z" fill="white" fill-opacity="0.01"/>
<path d="M7.39339 24.5703C4.67893 25.3847 3 26.5097 3 27.7523C3 30.2375 9.71572 32.2523 18 32.2523C26.2843 32.2523 33 30.2375 33 27.7523C33 26.5097 31.3211 25.3847 28.6066 24.5703" stroke="#5481F8" stroke-width="3" stroke-linecap="round" stroke-linejoin="round"/>
<path d="M18 26.25C18 26.25 27.75 19.878 27.75 12.5114C27.75 7.25838 23.3848 3 18 3C12.6152 3 8.25 7.25838 8.25 12.5114C8.25 19.878 18 26.25 18 26.25Z" stroke="#5481F8" stroke-width="3" stroke-linejoin="round"/>
<path d="M18 16.5C20.071 16.5 21.75 14.821 21.75 12.75C21.75 10.679 20.071 9 18 9C15.929 9 14.25 10.679 14.25 12.75C14.25 14.821 15.929 16.5 18 16.5Z" stroke="#5481F8" stroke-width="3" stroke-linejoin="round"/>
</svg>
